<?xml version="1.0" encoding="UTF-8"?> <svg xmlns="http://www.w3.org/2000/svg" width="220" height="24" viewBox="0 0 220 24" fill="none"><path d="M11.7023 24C9.45126 24 7.44177 23.5073 5.67384 22.5218C3.9059 21.5311 2.51828 20.1845 1.51097 18.4818C0.503661 16.7739 0 14.8262 0 12.6385C0 10.8275 0.316066 9.15575 0.948206 7.62335C1.58035 6.0961 2.45146 4.76233 3.56156 3.62206C4.6768 2.47662 5.96164 1.58658 7.41607 0.95195C8.87051 0.317317 10.4277 0 12.0877 0C13.3058 0 14.3491 0.0773938 15.2176 0.232183C16.0862 0.381812 16.8596 0.588197 17.538 0.851338C18.2164 1.10932 18.8974 1.40342 19.5809 1.73363L19.7505 7.19768H19.0182L17.6074 3.14221C16.6258 2.4147 15.6956 1.891 14.8167 1.57111C13.9379 1.25637 12.9589 1.099 11.8796 1.099C9.86498 1.099 8.10732 1.56853 6.60663 2.50758C5.10595 3.44663 3.95216 4.68752 3.14528 6.23025C2.33326 7.77297 1.92725 9.43695 1.92725 11.2222C1.92725 13.575 2.3898 15.6053 3.31488 17.3131C4.2451 19.021 5.47597 20.3315 7.00749 21.2448C8.54416 22.1632 10.2273 22.6224 12.0569 22.6224C12.9203 22.6224 13.7683 22.5708 14.6009 22.4676C15.4335 22.3592 16.2969 22.1167 17.1911 21.7401V14.999L14.1306 14.2947V13.4124H22.0401V14.2947L19.2957 14.8984V21.3918C18.3346 22.1915 17.1628 22.8262 15.7804 23.2957C14.3979 23.7652 13.0385 24 11.7023 24Z" fill="black"></path><path d="M30.7204 23.6517H24.9541V22.7694L26.6424 22.4134L34.3437 3.70719H35.0838L42.708 22.2741L44.6429 22.7694V23.6517H38.1057V22.7694L40.6342 22.3438L38.1442 16.1986H30.5123L28.084 22.3747L30.7204 22.7694V23.6517ZM34.3051 6.6714L30.9671 15.1074H37.7202L34.3051 6.6714Z" fill="black"></path><path d="M54.0326 24C52.8146 24 51.7764 23.8839 50.9181 23.6517C50.065 23.4144 49.1682 23.0713 48.2277 22.6224L47.9116 18.0019H48.6208L50.34 21.7788C51.0184 22.2483 51.6736 22.5605 52.3058 22.7153C52.943 22.8649 53.588 22.9397 54.2407 22.9397C55.6027 22.9397 56.6357 22.5992 57.3398 21.9181C58.0387 21.237 58.3882 20.2722 58.3882 19.0235C58.3882 18.0845 58.1543 17.3441 57.6867 16.8023C57.219 16.2606 56.5637 15.7833 55.7209 15.3705C54.878 14.9578 53.881 14.4702 52.7298 13.9078C51.3935 13.2473 50.3811 12.5637 49.6924 11.8568C48.9986 11.1551 48.6517 10.1335 48.6517 8.792C48.6517 7.94582 48.9164 7.12802 49.4457 6.3386C49.9699 5.54918 50.6663 4.89648 51.5349 4.38052C52.4034 3.8594 53.3413 3.59884 54.3486 3.59884C55.2378 3.59884 56.0472 3.71751 56.777 3.95485C57.5016 4.1922 58.2623 4.49661 59.0589 4.86811L59.3749 9.35698H58.6349L57.3398 5.7891C56.8464 5.39181 56.3658 5.09771 55.8982 4.9068C55.4253 4.72106 54.896 4.62818 54.3101 4.62818C53.0253 4.62818 52.0488 4.96356 51.3807 5.63431C50.7126 6.2999 50.3785 7.11512 50.3785 8.07997C50.3785 9.23573 50.7408 10.1258 51.4655 10.7501C52.1901 11.3744 53.3028 12.0503 54.8035 12.7778C56.0215 13.3402 57.0288 13.8871 57.8254 14.4186C58.622 14.95 59.2079 15.5511 59.5831 16.2219C59.9582 16.8926 60.1458 17.7336 60.1458 18.7449C60.1458 19.7562 59.8606 20.6566 59.2901 21.446C58.7145 22.2302 57.9642 22.852 57.0391 23.3112C56.114 23.7704 55.1118 24 54.0326 24Z" fill="black"></path><path d="M76.3885 23.6517H68.4482V22.7694L71.4701 22.2354V5.04611H65.6652L64.3701 9.35698H63.6609V3.8852H81.2066V9.35698H80.4665L79.1714 5.04611H73.3357V22.2354L76.3885 22.7694V23.6517Z" fill="black"></path><path d="M91.6835 23.6517H85.0769V22.7694L87.4975 22.2354V5.29377L85.0769 4.76749V3.8852H91.1902C93.323 3.8852 95.0061 4.32118 96.2396 5.19316C97.4679 6.05998 98.082 7.24669 98.082 8.7533C98.082 9.97613 97.6966 11.0055 96.9257 11.8413C96.1496 12.6772 95.1295 13.3067 93.8652 13.7298L99.7009 22.3747L101.705 22.7694V23.6517H98.1206L92.069 14.2638H89.3631V22.2044L91.6835 22.7694V23.6517ZM91.4368 5.04611H89.3631V13.0951H91.6142C93.0223 13.0951 94.1119 12.7236 94.8828 11.9806C95.6588 11.2428 96.0468 10.296 96.0468 9.14028C96.0468 7.89681 95.6537 6.90358 94.8674 6.16059C94.081 5.41761 92.9375 5.04611 91.4368 5.04611Z" fill="black"></path><path d="M113.515 24C111.686 24 110.051 23.5588 108.612 22.6766C107.168 21.7943 106.037 20.5817 105.22 19.039C104.398 17.5014 103.987 15.7446 103.987 13.7685C103.987 11.7923 104.398 10.0277 105.22 8.47468C106.037 6.92164 107.168 5.70397 108.612 4.82167C110.051 3.93937 111.686 3.49823 113.515 3.49823C115.345 3.49823 116.979 3.93937 118.418 4.82167C119.862 5.70397 121.001 6.92164 121.833 8.47468C122.661 10.0277 123.074 11.7923 123.074 13.7685C123.074 15.7446 122.661 17.5014 121.833 19.039C121.001 20.5817 119.862 21.7943 118.418 22.6766C116.979 23.5588 115.345 24 113.515 24ZM114.147 22.7694C115.53 22.7694 116.756 22.4392 117.825 21.7788C118.888 21.1183 119.713 20.1819 120.299 18.9694C120.885 17.7569 121.178 16.3276 121.178 14.6817C121.178 12.6591 120.816 10.8997 120.091 9.40342C119.361 7.91229 118.382 6.75395 117.154 5.92841C115.926 5.10803 114.538 4.69784 112.991 4.69784C111.583 4.69784 110.339 5.02548 109.26 5.68075C108.181 6.34118 107.338 7.27765 106.731 8.49016C106.12 9.70268 105.814 11.1319 105.814 12.7778C105.814 14.8004 106.189 16.5598 106.939 18.0561C107.69 19.5472 108.692 20.7056 109.946 21.5311C111.2 22.3567 112.6 22.7694 114.147 22.7694Z" fill="black"></path><path d="M134.854 23.6517H127.823V22.7694L130.252 22.2354V5.29377L127.823 4.76749V3.8852H134.36C136.637 3.8852 138.472 4.31345 139.865 5.16994C141.257 6.0316 141.954 7.37826 141.954 9.20993C141.954 10.3192 141.62 11.3022 140.952 12.1587C140.284 13.0203 139.364 13.6962 138.192 14.1864C137.02 14.6817 135.661 14.9294 134.114 14.9294H132.109V22.2354L134.854 22.7694V23.6517ZM134.26 5.04611H132.109V13.7685H134.468C136.062 13.7685 137.37 13.3686 138.392 12.5688C139.41 11.7691 139.919 10.732 139.919 9.45759C139.919 7.90454 139.402 6.78233 138.369 6.09094C137.341 5.39439 135.972 5.04611 134.26 5.04611Z" fill="black"></path><path d="M152.677 23.6517H146.07V22.7694L148.499 22.2354V5.29377L146.07 4.76749V3.8852H152.184C154.316 3.8852 156 4.32118 157.233 5.19316C158.461 6.05998 159.075 7.24669 159.075 8.7533C159.075 9.97613 158.69 11.0055 157.919 11.8413C157.143 12.6772 156.123 13.3067 154.859 13.7298L160.694 22.3747L162.699 22.7694V23.6517H159.114L153.062 14.2638H150.357V22.2044L152.677 22.7694V23.6517ZM152.43 5.04611H150.357V13.0951H152.608C154.016 13.0951 155.105 12.7236 155.876 11.9806C156.652 11.2428 157.04 10.296 157.04 9.14028C157.04 7.89681 156.647 6.90358 155.861 6.16059C155.074 5.41761 153.931 5.04611 152.43 5.04611Z" fill="black"></path><path d="M171.487 23.6517H164.981V22.7694L167.301 22.2354V5.29377L164.981 4.76749V3.8852H171.487V4.76749L169.167 5.29377V22.2354L171.487 22.7694V23.6517Z" fill="black"></path><path d="M182.349 23.6517H176.058V22.7694L178.448 22.2741L179.119 5.36343L176.482 4.76749V3.8852H181.401L188.678 20.5792L195.994 3.8852H200.881V4.76749L198.314 5.36343L198.838 22.2741L200.982 22.7694V23.6517H194.652V22.7694L196.942 22.3051L196.557 5.8278L188.57 23.791H187.938L180.244 5.92841L179.89 22.3051L182.349 22.7694V23.6517Z" fill="black"></path><path d="M220 23.6517H205.376V22.7694L207.766 22.2354V5.29377L205.376 4.76749V3.8852H219.16V8.7533H218.42L217.263 5.04611H209.631V12.8475H215.259L215.922 10.3786H216.631V16.3766H215.922L215.259 13.9774H209.631V22.4831H218.104L219.298 18.4973H220V23.6517Z" fill="black"></path></svg> 